HIERARCHY
ROOT Hips
{
	OFFSET 0.000000 0.000000 0.000000
	CHANNELS 6 Xposition Yposition Zposition Zrotation Yrotation Xrotation 
	JOINT LHipJoint
	{
		OFFSET 0.000000 0.000000 0.000000
		CHANNELS 3 Zrotation Yrotation Xrotation
		JOINT LeftUpLeg
		{
			OFFSET 1.363060 -1.794630 0.839290
			CHANNELS 3 Zrotation Yrotation Xrotation
			JOINT LeftLeg
			{
				OFFSET 2.448110 -6.726130 0.000000
				CHANNELS 3 Zrotation Yrotation Xrotation
				JOINT LeftFoot
				{
					OFFSET 2.562200 -7.039590 0.000000
					CHANNELS 3 Zrotation Yrotation Xrotation
					JOINT LeftToeBase
					{
						OFFSET 0.157640 -0.433110 2.322550
						CHANNELS 3 Zrotation Yrotation Xrotation
						End Site
						{
							OFFSET 0.000000 0.000000 0.000000
						}
					}
				}
			}
		}
	}
	JOINT RHipJoint
	{
		OFFSET 0.000000 0.000000 0.000000
		CHANNELS 3 Zrotation Yrotation Xrotation
		JOINT RightUpLeg
		{
			OFFSET -1.305520 -1.794630 0.839290
			CHANNELS 3 Zrotation Yrotation Xrotation
			JOINT RightLeg
			{
				OFFSET -2.542530 -6.985550 0.000000
				CHANNELS 3 Zrotation Yrotation Xrotation
				JOINT RightFoot
				{
					OFFSET -2.568260 -7.056230 0.000000
					CHANNELS 3 Zrotation Yrotation Xrotation
					JOINT RightToeBase
					{
						OFFSET -0.164730 -0.452590 2.363150
						CHANNELS 3 Zrotation Yrotation Xrotation
						End Site
						{
							OFFSET 0.000000 0.000000 0.000000
						}
					}
				}
			}
		}
	}
}
MOTION
Frames: 33
Frame Time: 0.008333
4.013558 17.317756 -1.558504 47.987392 -74.013532 -10.734706 -5.245936 0.264820 11.751981 1.779607 -27.228950 -112.020493 -7.720576 -4.192052 -5.989905 -1.078424 0.000949 10.634304 1.865600 0.000000 -45.144800 9.641412 2.390943 -2.292717 8.887058 -7.319817 -43.464332 2.699298 0.713852 11.728349 -2.600710 -9.115336 -8.776554 -0.817800 0.000000 -44.951301
4.013190 17.330640 -1.555938 47.987095 -74.225217 -11.057236 -5.254514 0.189079 11.649741 2.117482 -26.607254 -110.924065 -7.419743 -4.106420 -5.941027 -1.020468 0.256768 10.973425 1.941300 0.000000 -44.830200 9.661960 2.373997 -2.246548 8.778258 -6.999568 -42.704177 2.614182 0.799114 11.124129 -2.656310 -9.496595 -8.486373 -0.900000 0.000000 -44.906600
4.011982 17.344647 -1.552225 47.953572 -74.464950 -11.459602 -5.258013 0.117241 11.488688 2.162544 -26.033583 -109.421985 -7.126962 -4.022612 -5.934441 -0.952946 0.547910 11.305473 2.027300 0.000001 -44.633500 9.685833 2.346121 -2.195027 8.667872 -6.664340 -41.801342 2.519835 0.884099 10.502160 -2.716304 -9.913567 -8.185004 -0.988700 0.000000 -44.877500
4.009995 17.359325 -1.547414 47.891906 -74.728598 -11.941866 -5.259318 0.051012 11.267698 1.894238 -25.511994 -107.542556 -6.853811 -3.936463 -5.951618 -0.878968 0.866077 11.635820 2.121700 0.000000 -44.608500 9.713173 2.307791 -2.140947 8.563244 -6.329728 -40.772573 2.421034 0.966183 9.874136 -2.776055 -10.343478 -7.880806 -1.080600 0.000000 -44.864900
4.006670 17.373923 -1.541522 47.819636 -75.009260 -12.506913 -5.260873 -0.008229 10.997613 1.334638 -25.027013 -105.325842 -6.604671 -3.849605 -6.004318 -0.798383 1.224366 11.988824 2.232400 0.000000 -44.785800 9.745614 2.260311 -2.088104 8.477570 -6.033239 -39.660602 2.327487 1.040164 9.276102 -2.826097 -10.734928 -7.598124 -1.165301 0.000000 -44.826901
4.002141 17.388115 -1.534328 47.729483 -75.308746 -13.141217 -5.267801 -0.061286 10.678108 0.482264 -24.551944 -102.811019 -6.386199 -3.755053 -6.065282 -0.719702 1.583826 12.372850 2.344300 -0.000001 -45.147200 9.781835 2.202637 -2.037021 8.416498 -5.775599 -38.472240 2.241346 1.106498 8.703397 -2.864773 -11.080628 -7.334621 -1.241799 -0.000000 -44.790400
3.996167 17.401410 -1.525636 47.621823 -75.626828 -13.833290 -5.284613 -0.108408 10.314443 -0.641698 -24.050388 -100.047026 -6.201888 -3.648500 -6.114620 -0.650257 1.908096 12.794200 2.443100 -0.000000 -45.637701 9.821114 2.134179 -1.987833 8.386122 -5.565213 -37.226595 2.166230 1.164587 8.163495 -2.889092 -11.363132 -7.097025 -1.306000 0.000000 -44.750900
3.988503 17.413481 -1.515113 47.493064 -75.965040 -14.566177 -5.315564 -0.150761 9.913713 -1.990405 -23.478905 -97.089088 -6.050203 -3.527598 -6.136068 -0.594732 2.168606 13.251887 2.516800 0.000000 -46.174800 9.862126 2.054117 -1.939175 8.390508 -5.402952 -35.941063 2.104216 1.214793 7.658095 -2.897805 -11.574095 -6.886174 -1.356301 -0.000000 -44.715300
3.979101 17.424143 -1.502497 47.334609 -76.324539 -15.320101 -5.364063 -0.189824 9.480843 -3.506162 -22.796343 -93.992606 -5.927087 -3.390149 -6.106769 -0.556367 2.337511 13.731354 2.551899 0.000000 -46.664000 9.903015 1.962010 -1.889454 8.429943 -5.282356 -34.625023 2.055148 1.258370 7.181267 -2.892081 -11.717868 -6.697968 -1.393500 -0.000001 -44.698100
3.967651 17.433187 -1.487465 47.137347 -76.706102 -16.067536 -5.432810 -0.226536 9.027834 -5.092923 -21.972363 -90.826430 -5.822687 -3.237991 -6.013737 -0.531761 2.419920 14.209793 2.549100 -0.000001 -47.006500 9.941318 1.857146 -1.834584 8.505074 -5.193886 -33.299996 2.019107 1.296298 6.732947 -2.873627 -11.799167 -6.531070 -1.418500 -0.000000 -44.699300
3.953894 17.440523 -1.469751 46.889568 -77.108858 -16.778535 -5.523240 -0.261355 8.565080 -6.649635 -20.995637 -87.652885 -5.725129 -3.073064 -5.839156 -0.514682 2.435756 14.654419 2.514700 0.000000 -47.129000 9.974328 1.739432 -1.771070 8.613923 -5.123021 -31.979723 1.994435 1.330139 6.306660 -2.846043 -11.833446 -6.379909 -1.434700 -0.000001 -44.724000
3.937755 17.446143 -1.449270 46.576404 -77.530053 -17.421407 -5.635523 -0.294006 8.105635 -8.067881 -19.879449 -84.531689 -5.620426 -2.898105 -5.565018 -0.495048 2.429952 15.027213 2.466999 0.000000 -46.989499 9.999162 1.609661 -1.696042 8.754721 -5.057039 -30.682970 1.979847 1.360802 5.901843 -2.812763 -11.833902 -6.243459 -1.444201 -0.000000 -44.763500
3.918811 17.450073 -1.426062 46.198277 -77.963866 -17.973468 -5.767666 -0.323867 7.669066 -9.220227 -18.668387 -81.507425 -5.489528 -2.719808 -5.195572 -0.455796 2.496987 15.301061 2.447200 0.000000 -46.591300 10.014797 1.470356 -1.608231 8.923176 -4.991587 -29.434562 1.974573 1.388604 5.522608 -2.775854 -11.807525 -6.120693 -1.448600 0.000000 -44.819100
3.897775 17.452697 -1.400173 45.714477 -78.409623 -18.387512 -5.919996 -0.351597 7.255048 -10.065484 -17.405873 -78.612430 -5.325048 -2.531695 -4.666320 -0.392172 2.656463 15.423717 2.461601 0.000000 -45.976100 10.016198 1.322346 -1.504077 9.111796 -4.879835 -28.215473 1.971093 1.417358 5.135900 -2.746088 -11.810796 -5.993732 -1.459100 -0.000000 -44.897000
3.873943 17.453926 -1.372045 45.160211 -78.854413 -18.673441 -6.086151 -0.374635 6.893483 -10.489581 -16.188819 -75.860293 -5.106869 -2.344195 -4.005246 -0.281341 3.052017 15.392838 2.573400 -0.000000 -45.207600 10.007115 1.171755 -1.388744 9.316047 -4.755183 -27.073379 1.973407 1.443975 4.776927 -2.718317 -11.810983 -5.879580 -1.468200 0.000000 -44.978400
3.847825 17.454095 -1.342080 44.536583 -79.291605 -18.828094 -6.261977 -0.392187 6.589906 -10.483929 -15.093724 -73.252314 -4.829466 -2.154014 -3.169322 -0.116469 3.722772 15.187754 2.794300 0.000001 -44.363401 9.987999 1.022433 -1.265027 9.526223 -4.609528 -26.006145 1.978374 1.469044 4.440142 -2.695605 -11.823777 -5.774821 -1.478500 -0.000001 -45.064300
3.819654 17.453455 -1.310785 43.875010 -79.712184 -18.879247 -6.440899 -0.402904 6.350521 -10.059180 -14.198735 -70.776708 -4.489203 -1.960698 -2.132777 0.108812 4.702981 14.809482 3.130799 -0.000000 -43.519700 9.962508 0.879198 -1.138283 9.730312 -4.454782 -25.018858 1.984900 1.491638 4.132444 -2.676986 -11.843694 -5.682175 -1.488600 0.000000 -45.156100
3.789847 17.452151 -1.278628 43.213396 -80.108714 -18.872488 -6.616312 -0.403369 6.169234 -9.307095 -13.547202 -68.429748 -4.096813 -1.757831 -0.831924 0.386871 5.936274 14.254416 3.545700 -0.000000 -42.713600 9.934975 0.744853 -1.013918 9.918229 -4.312295 -24.111928 1.993064 1.510063 3.867404 -2.659361 -11.853687 -5.609532 -1.494100 0.000000 -45.250700
3.758740 17.450411 -1.246053 42.607291 -80.477066 -18.876523 -6.781768 -0.391807 6.031971 -8.348100 -13.147055 -66.201547 -3.668827 -1.540735 0.781748 0.702983 7.328338 13.535634 3.985000 -0.000000 -41.960000 9.910911 0.621260 -0.896634 10.078510 -4.203859 -23.277035 2.002573 1.522742 3.655161 -2.639083 -11.835315 -5.562438 -1.490800 0.000001 -45.353799
3.726864 17.448386 -1.213516 42.127493 -80.817909 -18.982111 -6.931937 -0.369246 5.920653 -7.304181 -12.977821 -64.066553 -3.223930 -1.309642 2.712477 1.038921 8.780617 12.691139 4.397500 0.000001 -41.267700 9.896584 0.510186 -0.790818 10.198545 -4.148724 -22.499915 2.012755 1.527976 3.503381 -2.612170 -11.769777 -5.543543 -1.475200 0.000000 -45.476500
3.694640 17.446128 -1.181209 41.821922 -81.137717 -19.260150 -7.066655 -0.336829 5.808901 -6.329267 -12.963473 -62.007867 -2.791117 -1.062255 4.967545 1.363945 10.137022 11.749097 4.713400 -0.000000 -40.589700 9.895857 0.410184 -0.697694 10.274183 -4.157940 -21.759891 2.023417 1.524830 3.415912 -2.575621 -11.643465 -5.554867 -1.444699 0.000000 -45.622800
3.662345 17.443600 -1.149196 41.704445 -81.448370 -19.744503 -7.191015 -0.296936 5.671269 -5.551738 -12.996373 -60.007014 -2.398493 -0.798761 7.521153 1.646190 11.249555 10.732632 4.875100 0.000001 -39.831900 9.909276 0.318021 -0.615772 10.310310 -4.229174 -21.036186 2.034619 1.513371 3.391310 -2.528560 -11.453490 -5.596264 -1.399000 0.000000 -45.791700
3.630269 17.440695 -1.117410 41.774568 -81.760707 -20.444181 -7.311981 -0.252384 5.494987 -5.024810 -12.986890 -58.031202 -2.062383 -0.527537 10.273522 1.866806 12.052761 9.675203 4.870600 -0.000000 -38.908400 9.935360 0.231117 -0.542512 10.312994 -4.347286 -20.313632 2.045666 1.494448 3.421204 -2.472452 -11.209203 -5.662665 -1.341000 -0.000000 -45.983000
3.598336 17.437436 -1.085796 42.039896 -82.079463 -21.360799 -7.434694 -0.202557 5.282733 -4.743775 -12.884111 -56.047312 -1.789033 -0.262491 13.076412 2.021434 12.555526 8.606955 4.724000 0.000000 -37.745400 9.972256 0.147919 -0.474960 10.285928 -4.496716 -19.593110 2.055897 1.469203 3.497108 -2.409483 -10.922441 -5.748322 -1.274200 0.000000 -46.199100
3.566771 17.433655 -1.053958 42.404417 -82.414903 -22.390112 -7.568002 -0.146734 5.032308 -4.699724 -12.608913 -54.066158 -1.583621 -0.008725 15.844506 2.104467 12.730874 7.511060 4.441601 0.000000 -36.240600 10.009976 0.063015 -0.402831 10.251536 -4.626396 -18.870918 2.063947 1.441315 3.595975 -2.348371 -10.638126 -5.844114 -1.206999 0.000000 -46.417000
3.535013 17.429617 -1.022151 42.936997 -82.752477 -23.572049 -7.706015 -0.077805 4.770843 -4.822730 -12.204047 -52.069455 -1.436812 0.215459 18.397738 2.137391 12.702920 6.411444 4.091300 -0.000000 -34.416300 10.050931 -0.021488 -0.324672 10.198857 -4.742005 -18.181310 2.069541 1.411107 3.718485 -2.288724 -10.353875 -5.944762 -1.140800 0.000000 -46.655300
3.502852 17.425447 -0.990119 43.569920 -83.091865 -24.817111 -7.848648 0.006552 4.507563 -5.073612 -11.655350 -50.089529 -1.343294 0.406866 20.674943 2.130640 12.508614 5.285590 3.695600 0.000000 -32.271201 10.087905 -0.108615 -0.229996 10.141624 -4.803489 -17.537917 2.071382 1.382324 3.844436 -2.238150 -10.108559 -6.043085 -1.082101 -0.000000 -46.896100
3.469982 17.421399 -0.957939 44.298471 -83.423561 -26.098423 -7.989792 0.108617 4.258662 -5.405440 -10.994670 -48.148738 -1.293789 0.560409 22.607985 2.101956 12.229089 4.132904 3.290100 0.000000 -29.876499 10.119628 -0.198297 -0.112944 10.080708 -4.800067 -16.964614 2.069026 1.357116 3.963406 -2.199222 -9.916435 -6.132263 -1.033900 0.000000 -47.140100
3.436021 17.417820 -0.925695 45.128808 -83.737851 -27.405975 -8.123026 0.229072 4.036713 -5.786936 -10.254981 -46.265939 -1.280098 0.673683 24.152499 2.066582 11.935694 2.966532 2.902100 -0.000000 -27.383000 10.146894 -0.290145 0.029910 10.014171 -4.735144 -16.481461 2.062773 1.336980 4.068265 -2.171929 -9.779565 -6.205650 -0.997400 0.000000 -47.388500
3.400554 17.414928 -0.893373 46.028776 -84.029475 -28.695213 -8.244668 0.365455 3.848795 -6.191409 -9.462179 -44.460900 -1.294280 0.747375 25.297565 2.035581 11.679178 1.805102 2.547100 0.000001 -24.923000 10.168895 -0.384432 0.201361 9.945032 -4.606803 -16.095001 2.052924 1.324078 4.145860 -2.157110 -9.704550 -6.257730 -0.974100 -0.000000 -47.636299
3.363614 17.412912 -0.860955 46.964174 -84.293669 -29.931392 -8.352165 0.514293 3.699523 -6.599744 -8.644051 -42.741407 -1.328916 0.782667 26.037920 2.017106 11.501952 0.686668 2.237001 0.000000 -22.683900 10.186226 -0.480490 0.399697 9.873672 -4.427298 -15.805566 2.040499 1.319438 4.187349 -2.153086 -9.685630 -6.283636 -0.964100 -0.000000 -47.877500
3.325090 17.411861 -0.828328 47.877813 -84.527879 -31.058632 -8.444939 0.671325 3.591352 -6.994133 -7.828429 -41.109645 -1.377175 0.781516 26.381350 2.015878 11.429877 -0.351915 1.976800 -0.000000 -20.747200 10.198864 -0.577679 0.621473 9.801736 -4.207524 -15.603529 2.026422 1.324177 4.181237 -2.158374 -9.718113 -6.279207 -0.967601 0.000000 -48.118000
3.285165 17.411706 -0.795428 48.713117 -84.729521 -32.029954 -8.524091 0.833017 3.524831 -7.362925 -7.039730 -39.556017 -1.432615 0.746197 26.334117 2.033093 11.477439 -1.252536 1.772900 -0.000000 -19.361700 10.207593 -0.674957 0.858834 9.730161 -3.972683 -15.475849 2.012724 1.338161 4.124056 -2.169002 -9.783550 -6.245068 -0.982100 0.000000 -48.341800
